# xmcd
#
# Track frame offsets:
#	150
#	12430
#	27803
#	52003
#	63036
#	76718
#	92603
#	105665
#	118436
#	137004
#	155064
#	171501
#	184275
#	196752
#
# Disc length: 2767 seconds
#
# Revision: 0
# Processed by: cddbd v1.5.1PL2 Copyright (c) Steve Scherf et al.
# Submitted via: dBpowerAMP V4.0
#
DISCID=b90acd0e
DTITLE=Robert Lowery - Playing Out in the Street
DYEAR=2000
DGENRE=Blues
TTITLE0=Ready to Go
TTITLE1=Blacktop Blues
TTITLE2=Playing Out in the Street
TTITLE3=Don't Dog Me
TTITLE4=Sliding the Blues
TTITLE5=Bye Bye Baby
TTITLE6=Sweet Lovin' Woman
TTITLE7=Little Boy Boogie
TTITLE8=Humming the Blues
TTITLE9=Cold Weather Blues
TTITLE10=Milkcow's Calf Blues
TTITLE11=Leaving You Now
TTITLE12=My Sweet Baby
TTITLE13=Don't Treat Me This Way
EXTD=2000.Freepott Records
EXTT0=
EXTT1=
EXTT2=
EXTT3=
EXTT4=
EXTT5=
EXTT6=
EXTT7=
EXTT8=
EXTT9=
EXTT10=
EXTT11=
EXTT12=
EXTT13=
PLAYORDER=
